<svg xmlns="http://www.w3.org/2000/svg" xmlns:xlink="http://www.w3.org/1999/xlink" viewBox="0 0 215.08 183.116"><defs><style>.cls-1{fill:#0065ff}.cls-2{fill:#fafbfc}.cls-3{fill:none;stroke:#3384ff;stroke-miterlimit:10;stroke-width:2px}.cls-4{fill:#1db9d4}.cls-5{fill:url(#linear-gradient)}.cls-6{fill:#6bd5e5}</style><linearGradient id="linear-gradient" x1="107.54" x2="107.54" y1="183.116" y2="75.576" gradientUnits="userSpaceOnUse"><stop offset="0" stop-color="#1db9d4"/><stop offset=".125" stop-color="#38c3da"/><stop offset=".264" stop-color="#4fcbdf"/><stop offset=".415" stop-color="#5fd1e2"/><stop offset=".586" stop-color="#68d4e4"/><stop offset=".818" stop-color="#6bd5e5"/></linearGradient></defs><title>Open Letter</title><g id="Layer_2" data-name="Layer 2"><g id="Objects"><path d="M214.9142,75.4426,131.5325,8.4449a38.3043,38.3043,0,0,0-47.9848,0L.166,75.4426H0v107.54H215.08V75.4426Z" class="cls-1"/><rect width="162.837" height="131.824" x="25.423" y="22.424" class="cls-2"/><line x1="43.859" x2="169.51" y1="58.171" y2="58.171" class="cls-3"/><rect width="162.837" height="12.146" x="25.423" y="19.519" class="cls-4"/><line x1="43.859" x2="109.591" y1="67.758" y2="67.758" class="cls-3"/><line x1="43.859" x2="169.51" y1="48.584" y2="48.584" class="cls-3"/><line x1="43.859" x2="169.51" y1="86.931" y2="86.931" class="cls-3"/><line x1="43.859" x2="169.51" y1="96.517" y2="96.517" class="cls-3"/><line x1="43.859" x2="116.142" y1="106.104" y2="106.104" class="cls-3"/><path d="M215.08,183.1156c-36.4392,0-59.6935-5.8778-74.15-14.2367-33.5422-19.3936-37.686-47.244-72.7243-70.5964C43.4438,81.7794,17.5525,77.0531,0,75.5757v107.54Z" class="cls-5"/><path d="M0,183.1156c36.6762,0,59.6935-5.8778,74.15-14.2367,33.5422-19.3936,37.686-47.244,72.7243-70.5964,24.7612-16.503,50.6525-21.2294,68.205-22.7067v107.54Z" class="cls-6"/></g></g></svg>